<svg width="20" height="20" viewBox="0 0 20 20" fill="none" xmlns="http://www.w3.org/2000/svg">
<path d="M14.1667 7.64167C14.0105 7.48646 13.7993 7.39934 13.5792 7.39934C13.359 7.39934 13.1478 7.48646 12.9917 7.64167L9.99999 10.5917L7.04999 7.64167C6.89386 7.48646 6.68265 7.39934 6.46249 7.39934C6.24234 7.39934 6.03113 7.48646 5.87499 7.64167C5.79689 7.71914 5.73489 7.8113 5.69258 7.91285C5.65028 8.0144 5.62849 8.12332 5.62849 8.23333C5.62849 8.34334 5.65028 8.45226 5.69258 8.55381C5.73489 8.65536 5.79689 8.74753 5.87499 8.825L9.40833 12.3583C9.4858 12.4364 9.57796 12.4984 9.67951 12.5407C9.78106 12.583 9.88998 12.6048 9.99999 12.6048C10.11 12.6048 10.2189 12.583 10.3205 12.5407C10.422 12.4984 10.5142 12.4364 10.5917 12.3583L14.1667 8.825C14.2448 8.74753 14.3068 8.65536 14.3491 8.55381C14.3914 8.45226 14.4132 8.34334 14.4132 8.23333C14.4132 8.12332 14.3914 8.0144 14.3491 7.91285C14.3068 7.8113 14.2448 7.71914 14.1667 7.64167Z" fill="#2D68FE"/>
</svg>
