<svg id="Layer_1" data-name="Layer 1" xmlns="http://www.w3.org/2000/svg" viewBox="0 0 57.02 152.41"><defs><style>.cls-1{fill:#c1cdd7;}</style></defs><path class="cls-1" d="M972.49,488.86A57.51,57.51,0,0,0,931.32,540c-.1,1.34-.15,2.68-.15,4s.05,2.65.14,4h-.16a57.49,57.49,0,0,0,30.58,46.84l.11.06c.45.24.91.47,1.37.69.28.14.56.29.85.42l.35.16a56,56,0,0,0,8.08,3.05c.73.22,1.43.47,2.12.75l.66.29.51.23A22,22,0,0,1,988,620.21v-8.67h.17V467.79A21.92,21.92,0,0,1,972.49,488.86Z" transform="translate(-931.15 -467.79)"/></svg>