<svg width="20" height="20" viewBox="0 0 20 20" fill="none" xmlns="http://www.w3.org/2000/svg">
<path d="M16.6667 6.66667L11.6667 2.28334C11.2083 1.87338 10.6149 1.64673 10 1.64673C9.38506 1.64673 8.79169 1.87338 8.33333 2.28334L3.33333 6.66667C3.06864 6.9034 2.85742 7.1938 2.71373 7.51854C2.57004 7.84328 2.49718 8.19491 2.5 8.55V15.8333C2.5 16.4964 2.76339 17.1323 3.23223 17.6011C3.70107 18.0699 4.33696 18.3333 5 18.3333H15C15.663 18.3333 16.2989 18.0699 16.7678 17.6011C17.2366 17.1323 17.5 16.4964 17.5 15.8333V8.54167C17.5016 8.18797 17.4282 7.83795 17.2846 7.51474C17.1409 7.19152 16.9303 6.90247 16.6667 6.66667ZM11.6667 16.6667H8.33333V12.5C8.33333 12.279 8.42113 12.067 8.57741 11.9107C8.73369 11.7545 8.94565 11.6667 9.16667 11.6667H10.8333C11.0543 11.6667 11.2663 11.7545 11.4226 11.9107C11.5789 12.067 11.6667 12.279 11.6667 12.5V16.6667ZM15.8333 15.8333C15.8333 16.0544 15.7455 16.2663 15.5893 16.4226C15.433 16.5789 15.221 16.6667 15 16.6667H13.3333V12.5C13.3333 11.837 13.0699 11.2011 12.6011 10.7322C12.1323 10.2634 11.4964 10 10.8333 10H9.16667C8.50362 10 7.86774 10.2634 7.3989 10.7322C6.93006 11.2011 6.66667 11.837 6.66667 12.5V16.6667H5C4.77899 16.6667 4.56702 16.5789 4.41074 16.4226C4.25446 16.2663 4.16667 16.0544 4.16667 15.8333V8.54167C4.16682 8.42335 4.19216 8.30642 4.24101 8.19865C4.28987 8.09089 4.36111 7.99476 4.45 7.91667L9.45 3.54167C9.60207 3.40807 9.79758 3.33439 10 3.33439C10.2024 3.33439 10.3979 3.40807 10.55 3.54167L15.55 7.91667C15.6389 7.99476 15.7101 8.09089 15.759 8.19865C15.8078 8.30642 15.8332 8.42335 15.8333 8.54167V15.8333Z" fill="#71839B"/>
</svg>
