<svg width="1440" height="2077" viewBox="0 0 1440 2077" fill="none" xmlns="http://www.w3.org/2000/svg">
<rect x="769" y="727" width="321" height="675" fill="#EBEBEB"/>
<path d="M355.973 1498.43L269 541L1205.97 541.365L1119.73 1497.7L736.754 1605.87L355.973 1498.43ZM1049.2 1446.18L1121.92 626.146H738.216L741.139 1530.59L1049.2 1446.18ZM702.403 746.373H609.218L608.122 1237.15L427.232 1187.82L427.598 1300L702.403 1374.19V746.373Z" fill="#D4B830"/>
<path opacity="0.986" d="M427.598 1300L427.232 1187.82C427.232 1187.82 542.709 1220.34 608.122 1237.15L609.218 746.739H702.403V1374.19L427.598 1300Z" fill="#EBEBEB" fill-opacity="0.9216"/>
<path d="M738.216 625.78H1121.92L1049.2 1445.81L738.216 1530.23V625.78ZM1029.47 1308.41L1054.68 1001.81L868.31 1022.64V858.927L1067.11 858.196L1075.14 746.373L775.124 747.835L779.144 1154.93L960.399 1123.87L957.841 1214.49L775.124 1263.1L776.952 1374.19L1029.47 1308.41Z" fill="#FDD83C"/>
</svg>
