<svg id="Graphic_Elements" data-name="Graphic Elements" xmlns="http://www.w3.org/2000/svg" xmlns:xlink="http://www.w3.org/1999/xlink" viewBox="0 0 850 857.86">
  <defs>
    <style>
      .cls-1 {
        fill: url(#linear-gradient);
      }

      .cls-2 {
        fill: url(#linear-gradient-2);
      }

      .cls-3, .cls-4, .cls-6 {
        fill-rule: evenodd;
      }

      .cls-3 {
        opacity: 0.05;
      }

      .cls-3, .cls-4 {
        isolation: isolate;
      }

      .cls-4 {
        opacity: 0.1;
      }

      .cls-5 {
        fill: url(#linear-gradient-3);
      }

      .cls-6 {
        fill: #fff;
      }
    </style>
    <linearGradient id="linear-gradient" x1="-335.63" y1="1136.62" x2="-333.29" y2="1121.82" gradientTransform="matrix(33.33, 0, 0, -33.33, 11574.09, 38061.24)" gradientUnits="userSpaceOnUse">
      <stop offset="0.01" stop-color="#00b7f0"/>
      <stop offset="0.34" stop-color="#009de5"/>
      <stop offset="0.76" stop-color="#0082d9"/>
      <stop offset="1" stop-color="#0078d4"/>
    </linearGradient>
    <linearGradient id="linear-gradient-2" x1="-330.5" y1="1114.71" x2="-317.48" y2="1122.22" gradientTransform="matrix(33.33, 0, 0, -33.33, 11574.09, 38061.24)" gradientUnits="userSpaceOnUse">
      <stop offset="0" stop-color="#0078d4"/>
      <stop offset="0.37" stop-color="#007ad5"/>
      <stop offset="0.57" stop-color="#0082d9"/>
      <stop offset="0.73" stop-color="#0090df"/>
      <stop offset="0.88" stop-color="#00a3e7"/>
      <stop offset="1" stop-color="#00bcf2"/>
    </linearGradient>
    <linearGradient id="linear-gradient-3" x1="-333.87" y1="1131.83" x2="-321.99" y2="1111.26" gradientTransform="matrix(33.33, 0, 0, -33.33, 11574.09, 38061.24)" gradientUnits="userSpaceOnUse">
      <stop offset="0" stop-color="#00b7f0"/>
      <stop offset="1" stop-color="#007cc1"/>
    </linearGradient>
  </defs>
  <g>
    <path class="cls-1" d="M675.94,420.71c0,137.87-112.14,249.63-250.47,249.63h0C287.14,670.34,175,558.58,175,420.71h0c0-137.88,112.14-249.64,250.47-249.64h0c138.33,0,250.47,111.76,250.47,249.64h0" transform="translate(-175 -171.07)"/>
    <path class="cls-2" d="M1025,779.21c0,137.92-112.18,249.72-250.55,249.72S523.89,917.13,523.89,779.21,636.07,529.48,774.45,529.48,1025,641.29,1025,779.21h0" transform="translate(-175 -171.07)"/>
    <path class="cls-3" d="M175.91,442.07c11.37,137.84,132.34,240.37,270.18,229s240.38-132.33,229-270.18A250.45,250.45,0,0,0,456.64,173,455.11,455.11,0,0,0,175.91,442.07Z" transform="translate(-175 -171.07)"/>
    <path class="cls-3" d="M1024.34,761.28c-9.46-138-129-242.27-267.06-232.81S515,657.49,524.46,795.53A250.54,250.54,0,0,0,751.74,1027.9a455.09,455.09,0,0,0,272.6-266.65Z" transform="translate(-175 -171.07)"/>
    <path class="cls-4" d="M187.64,499.14C230.6,630.57,372,702.28,503.39,659.32S706.52,475,663.56,343.57a250.33,250.33,0,0,0-150-156.6A425.86,425.86,0,0,0,187.64,499.14Z" transform="translate(-175 -171.07)"/>
    <path class="cls-4" d="M1013,702.6C971,570.8,830.15,498,698.36,539.93s-204.63,182.8-162.68,314.6a250.49,250.49,0,0,0,157.24,160.88A425.88,425.88,0,0,0,1013,702.6Z" transform="translate(-175 -171.07)"/>
    <path class="cls-4" d="M196.85,522.82c56.07,126.35,204,183.32,330.31,127.25s183.32-204,127.24-330.31A250.25,250.25,0,0,0,537,197.12,411.4,411.4,0,0,0,196.85,522.82Z" transform="translate(-175 -171.07)"/>
    <path class="cls-4" d="M1003.72,678.44C948.41,551.7,800.83,493.8,674.09,549.12S489.46,752,544.77,878.76a250.39,250.39,0,0,0,124,126.92,411.35,411.35,0,0,0,334.93-327.24Z" transform="translate(-175 -171.07)"/>
    <path class="cls-5" d="M996.75,601.86c0,218.37-177.61,395.39-396.71,395.39h0c-219.09,0-396.7-177-396.7-395.39h0C203.34,383.49,381,206.47,600,206.47h0c219.1,0,396.71,177,396.71,395.39h0" transform="translate(-175 -171.07)"/>
    <path class="cls-6" d="M488.49,588.13A124.61,124.61,0,0,1,449.4,546.9a114,114,0,0,1-13.38-57,102.41,102.41,0,0,1,24.13-69,145.26,145.26,0,0,1,62.91-42A242.92,242.92,0,0,1,605.42,365a320.21,320.21,0,0,1,54.79,4.2,198.5,198.5,0,0,1,38,9.81A73.74,73.74,0,0,1,728,398a38.43,38.43,0,0,1,9.18,25.54,37,37,0,0,1-9.67,26.62,32.14,32.14,0,0,1-24.27,10.12,43.64,43.64,0,0,1-18.05-4.06,327.83,327.83,0,0,0-43-15.73,155.88,155.88,0,0,0-41.4-5.14,94.49,94.49,0,0,0-51.87,13.26,43.16,43.16,0,0,0-20.71,38.75,39,39,0,0,0,10.75,27.25,97.85,97.85,0,0,0,29,20.73q18.23,9,54.33,24a55.59,55.59,0,0,1,7.78,3.11A386.37,386.37,0,0,1,697.27,597a135.43,135.43,0,0,1,41.4,42.49,112.1,112.1,0,0,1,15,59,118.73,118.73,0,0,1-20.7,71.15,123.1,123.1,0,0,1-57.91,43,244.09,244.09,0,0,1-87,14.19A274.39,274.39,0,0,1,469.33,804.4a64.52,64.52,0,0,1-24.42-19,42.7,42.7,0,0,1-8-25.85,33.8,33.8,0,0,1,10.44-26.31,38.5,38.5,0,0,1,26.91-9.49,68.92,68.92,0,0,1,31.45,8.09q18.07,9,28.51,13.56a144.24,144.24,0,0,0,24.59,7.78,141.08,141.08,0,0,0,31.6,3.26,84.41,84.41,0,0,0,53.11-14.16,46.76,46.76,0,0,0,17.9-38.77,41.21,41.21,0,0,0-11.21-28.31,119.12,119.12,0,0,0-33-24q-21.82-11.51-61.37-28a379.48,379.48,0,0,1-67.4-35" transform="translate(-175 -171.07)"/>
  </g>
</svg>
